<?xml version="1.0" encoding="UTF-8"?>
<svg id="Layer_1" data-name="Layer 1" xmlns="http://www.w3.org/2000/svg" viewBox="0 0 92.93 69">
  <defs>
    <style>
      .cls-1, .cls-2 {
        fill: #003767;
      }

      .cls-3 {
        fill: #00a4e4;
      }

      .cls-2 {
        fill-rule: evenodd;
      }
    </style>
  </defs>
  <g id="Layer_2" data-name="Layer 2">
    <g id="Layer_3" data-name="Layer 3">
      <path class="cls-3" d="m91.59,37.57c.86.83,1.34,1.97,1.33,3.17.02,1.2-.46,2.35-1.33,3.17-.88.85-2.06,1.33-3.28,1.33-1.21,0-2.38-.48-3.25-1.33-.87-.82-1.36-1.97-1.35-3.17.01-1.2.52-2.35,1.39-3.17.85-.83,1.98-1.29,3.17-1.28,1.23-.02,2.41.44,3.31,1.28Zm-.38.36c-.77-.77-1.81-1.19-2.9-1.19-2.15-.05-3.94,1.64-3.99,3.8-.03,1.1.41,2.16,1.21,2.92.76.74,1.77,1.16,2.84,1.16,1.08,0,2.12-.41,2.9-1.16.76-.71,1.19-1.7,1.19-2.74-.01-1.06-.46-2.07-1.24-2.79Zm-.59,1.58c.02.71-.53,1.3-1.24,1.35l1.19,2.34h-.98l-1.11-2.22h-1.12v2.22h-.89v-5.13h1.95c1.47.02,2.2.46,2.2,1.41v.03Zm-3.26-.84v1.76h.92c.98,0,1.43-.21,1.43-.86s-.46-.9-1.46-.9h-.89Z"/>
      <path class="cls-2" d="m20.73,48.64h-4.23l-2.99,12.27-4.31-12.27h-4.36L0,68.88c7,0,5.72-7.7,7.33-12.67l4.48,12.67h4.09l4.83-20.24Z"/>
      <path class="cls-2" d="m40.4,51.84c-1.43-2.28-3.98-3.59-6.67-3.44-8.03,0-11.78,7.32-11.67,12.67.1,4.62,2.95,7.92,7.92,7.92,2.85.1,5.62-.96,7.68-2.93l-2.82-2.8c-1.12,1.34-2.77,2.12-4.51,2.15-2.66,0-3.82-1.76-3.86-4.13-.08-3.86,2.44-9.19,7.03-9.19,1.55-.12,2.99.78,3.55,2.23l3.36-2.49Z"/>
      <path class="cls-2" d="m60.71,48.64h-17.09l-.86,3.66h6.13l-4.04,16.55s4.28,0,5.02-3.17l3.17-13.45h5.84l1.82-3.6Z"/>
      <path class="cls-2" d="m83.2,48.64h-5.27l-7.41,13.29-.97-13.29h-5.26l-5.81,20.21c6.97,0,5.5-6.34,7.54-11.48l.86,11.48h4.01l6.34-11.48-2.3,11.48h4.28l4.01-20.21Z"/>
      <path class="cls-1" d="m23.52,41.59c8.3-3.37,12.32-9.23,17.31-16.35,1.02,2.67,2.28,5.24,3.75,7.68-3.18,4.09-7.64,6.99-12.67,8.25-1.28.37-2.6.61-3.93.7-1.49.04-2.99-.05-4.47-.29Z"/>
      <path class="cls-1" d="m70.66,5.07c-8.3,3.37-12.43,9.33-17.42,16.44-1.05-2.65-2.26-5.23-3.64-7.73,3.18-4.1,7.64-7.01,12.67-8.28,1.28-.37,2.6-.61,3.93-.7,1.49-.08,2.99,0,4.47.27Z"/>
      <path class="cls-1" d="m50.07,0c1.75-.03,3.19,1.36,3.23,3.11,0,.23-.02.46-.06.68-.44,2.3-2.41,3.98-4.75,4.05-1.75.03-3.19-1.36-3.23-3.11,0-.23.02-.46.06-.68C45.75,1.75,47.72.06,50.07,0Z"/>
      <path class="cls-1" d="m16.16,41.91c-2.78-.22-5.38-1.45-7.32-3.45-3.56-4.13-5.16-9.6-4.37-15,.36-6.01,3.48-11.51,8.46-14.9,3.07-2.13,6.69-3.34,10.42-3.48.89-.06,1.78.03,2.65.25-1.58.61-3.13,1.32-4.62,2.12-5.62,3.61-9.21,9.64-9.71,16.3-.65,7.38,1.49,11.42,6.64,15.84,1.05.9,2.11,1.49,2.88,2.07-.91.16-1.83.25-2.76.27-.84.05-1.68.02-2.26-.02Z"/>
      <path class="cls-3" d="m67.46,41.88c1.22-.7,2.38-1.58,3.53-2.31,5.43-3.72,10.3-8.43,11.44-15.71,1.08-6.97,0-12.89-4.36-16.85-.98-.92-2.1-1.68-3.31-2.26.78-.05,1.56-.05,2.34,0,3.06-.04,6.03,1.1,8.28,3.17,3.17,2.87,4.75,8.51,3.82,15.84-.84,5.78-3.9,11.01-8.52,14.59-2.88,2.09-6.25,3.4-9.79,3.8-.82.06-1.65.06-2.47,0-.34,0-.67-.08-.97-.25Z"/>
      <path class="cls-3" d="m30.09,5.07c.89-.12,1.79-.14,2.69-.08,1.18.04,2.35.24,3.47.62,4.54,1.56,8.34,4.75,10.64,8.96,1.7,3.07,3.21,6.24,4.51,9.5,2.87,6.68,6.34,13.46,12.01,17.63l.3.22c-.59.16-1.19.27-1.81.32h-.95c-2.53-.04-4.98-.86-7.02-2.36-3.18-2.39-5.78-5.46-7.62-8.98-1.61-3.09-3.05-6.26-4.32-9.5-2.55-6.7-5.58-12.89-11.91-16.33Z"/>
    </g>
  </g>
</svg>