<?xml version="1.0" encoding="UTF-8"?>
<svg id="Layer_1" data-name="Layer 1" xmlns="http://www.w3.org/2000/svg" viewBox="0 0 92.93 29.05">
  <defs>
    <style>
      .cls-1 {
        fill: #211d1d;
      }
    </style>
  </defs>
  <g id="g8">
    <g id="g10">
      <path id="path12" class="cls-1" d="m45.28,23.26c.01.95-.75,1.71-1.68,1.73h-5.99c-.94-.02-1.7-.78-1.68-1.73v-.54c-.02-.94.74-1.7,1.68-1.68h5.99c.94-.01,1.71.75,1.68,1.68v.54Zm33.8,1.73c-.92-.02-1.68-.78-1.68-1.73v-12.57c0-.95-.76-1.71-1.68-1.73h-5.2c-1,0-1.44,1.02-1.43,1.04,0-.95-.49-1.03-1.44-1.04h-5.2c-.83.01-1.44.84-1.44.84v-.84h-4.06v14.3c0,.95-.77,1.71-1.73,1.73h-4.16c-.96-.02-1.72-.78-1.73-1.73v-12.57c.02-.95-.74-1.71-1.68-1.73h-14v4.11h9.95c.93,0,1.71.76,1.68,1.68v.45c.02.95-.8,1.73-1.73,1.73h-10c-.95,0-1.7.76-1.68,1.68v4.65c-.02.94-.78,1.71-1.73,1.73h-1.73c-.93-.02-1.67-.78-1.68-1.73v-14.3h-4.11v14.3c.02.95-.72,1.71-1.68,1.73l-2.97-.05v-6.33c0-.92-.76-1.68-1.68-1.68H5.74c-.93,0-1.69-.76-1.68-1.68v-.49c0-.92.76-1.68,1.68-1.68h12.22v-4.11H1.68C.75,8.97-.01,9.73,0,10.69v9.01s.12.59.4.89c.27.25,1,.45.99.44h10.79c.96,0,1.72.76,1.73,1.68v.54c0,.94-.78,1.71-1.73,1.73H0v4.06h16.53c.94.02,1.43-.21,1.44-1.14,0,.92.49,1.15,1.43,1.14h11.03c.94,0,1.41-.21,1.44-1.14-.02.93.47,1.15,1.39,1.14h14.65c.92,0,1.39-.21,1.39-1.14,0,.93.49,1.15,1.44,1.14h8.61c.92.02,1.68-.75,1.68-1.68v-14.3h2.47c.95,0,1.71.76,1.73,1.68v14.3h4.11v-15.98h2.28c.93,0,1.69.76,1.68,1.68v12.62c.01.94.77,1.7,1.73,1.68h12.42v-4.06h-8.36"/>
      <path id="path14" class="cls-1" d="m21.33,0h6.43l-1.04,5.89h-4.11l-1.29-5.89h0"/>
      <path id="path16" class="cls-1" d="m90.56,27.05v-.69h.46c.24,0,.49.05.49.33,0,.34-.26.36-.54.36h-.41Zm0,.29h.39l.59.97h.38l-.64-.99c.33-.04.58-.22.58-.62,0-.44-.26-.64-.79-.64h-.85v2.24h.34v-.97Zm.41,1.79c1.06,0,1.96-.82,1.96-1.95s-.9-1.94-1.96-1.94-1.97.82-1.97,1.94.9,1.95,1.97,1.95Zm-1.58-1.95c0-.92.69-1.61,1.58-1.61s1.57.69,1.57,1.61-.69,1.62-1.57,1.62-1.58-.69-1.58-1.62"/>
    </g>
  </g>
</svg>